<?xml version="1.0" encoding="UTF-8"?>
<svg width="300px" height="150px" viewBox="0 0 530 158" version="1.1" xmlns="http://www.w3.org/2000/svg" xmlns:xlink="http://www.w3.org/1999/xlink">
    <!-- Generator: Sketch 52.6 (67491) - http://www.bohemiancoding.com/sketch -->
    <title>full-logo</title>
    <desc>Created with Sketch.</desc>
    <g id="full-logo" stroke="none" stroke-width="1" fill="none" fill-rule="evenodd">
        <g id="Group" transform="translate(-26.000000, -21.000000)">
            <g id="udf-circle">
                <g id="circle" transform="translate(26.333333, 26.333333)">
                    <path d="M73.6666667,147.333333 C32.9816901,147.333333 0,114.351643 0,73.6666667 C0,32.9816901 32.9816901,0 73.6666667,0 C114.351643,0 147.333333,32.9816901 147.333333,73.6666667 C147.333333,114.351643 114.351643,147.333333 73.6666667,147.333333 Z M73.6666667,125.666667 C102.385474,125.666667 125.666667,102.385474 125.666667,73.6666667 C125.666667,44.9478597 102.385474,21.6666667 73.6666667,21.6666667 C44.9478597,21.6666667 21.6666667,44.9478597 21.6666667,73.6666667 C21.6666667,102.385474 44.9478597,125.666667 73.6666667,125.666667 Z" id="Combined-Shape" fill="#1DE9B6"></path>
                    <g id="circle-arrow" transform="translate(62.666667, 125.666667)" stroke="#FFFFFF" stroke-linecap="square" stroke-width="6">
                        <path d="M10.8333333,5.68434189e-14 L0.666666667,9.98461538 C0.333333333,10.3230769 0.166666667,10.6615385 0.166666667,11 C0.166666667,11.3384615 0.333333333,11.6769231 0.666666667,12.0153846 L10.8333333,22" id="inner-arrow"></path>
                    </g>
                    <g id="circle-arrow" transform="translate(79.000000, 10.833333) rotate(180.000000) translate(-79.000000, -10.833333) translate(73.666667, 0.000000)" stroke="#FFFFFF" stroke-linecap="square" stroke-width="6">
                        <path d="M10.8333333,5.68434189e-14 L0.666666667,9.98461538 C0.333333333,10.3230769 0.166666667,10.6615385 0.166666667,11 C0.166666667,11.3384615 0.333333333,11.6769231 0.666666667,12.0153846 L10.8333333,22" id="inner-arrow"></path>
                    </g>
                </g>
            </g>
            <path d="M260.703125,57 L271.425781,57 L240.546875,142.664062 L230.703125,142.664062 L200,57 L210.546875,57 L230.234375,112.429688 C232.500011,118.796907 234.296868,124.988251 235.625,131.003906 C237.031257,124.67575 238.867176,118.367219 241.132812,112.078125 L260.703125,57 Z M306.464844,143.835938 C296.972609,143.835938 289.482449,140.945341 283.994141,135.164062 C278.505832,129.382784 275.761719,121.35552 275.761719,111.082031 C275.761719,100.730417 278.310521,92.507843 283.408203,86.4140625 C288.505885,80.320282 295.35152,77.2734375 303.945312,77.2734375 C311.992228,77.2734375 318.359352,79.9198954 323.046875,85.2128906 C327.734398,90.5058858 330.078125,97.4882379 330.078125,106.160156 L330.078125,112.3125 L285.839844,112.3125 C286.035157,119.8516 287.939435,125.574199 291.552734,129.480469 C295.166034,133.386738 300.253873,135.339844 306.816406,135.339844 C313.730503,135.339844 320.566372,133.894546 327.324219,131.003906 L327.324219,139.675781 C323.886702,141.160164 320.634781,142.224606 317.568359,142.869141 C314.501938,143.513675 310.800803,143.835938 306.464844,143.835938 Z M303.828125,85.4179688 C298.671849,85.4179688 294.560562,87.0976395 291.494141,90.4570312 C288.427719,93.816423 286.621096,98.4648141 286.074219,104.402344 L319.648438,104.402344 C319.648438,98.2695006 318.281264,93.5722819 315.546875,90.3105469 C312.812486,87.0488118 308.906275,85.4179688 303.828125,85.4179688 Z M372.324219,143.835938 C363.027297,143.835938 355.830104,140.974638 350.732422,135.251953 C345.63474,129.529268 343.085938,121.433646 343.085938,110.964844 C343.085938,100.222603 345.673802,91.9219043 350.849609,86.0625 C356.025417,80.2030957 363.39839,77.2734375 372.96875,77.2734375 C376.054703,77.2734375 379.14061,77.6054654 382.226562,78.2695312 C385.312515,78.9335971 387.734366,79.7148393 389.492188,80.6132812 L386.503906,88.875 C384.355458,88.0156207 382.011731,87.3027372 379.472656,86.7363281 C376.933581,86.169919 374.68751,85.8867188 372.734375,85.8867188 C359.687435,85.8867188 353.164062,94.206948 353.164062,110.847656 C353.164062,118.738321 354.755843,124.792948 357.939453,129.011719 C361.123063,133.23049 365.839812,135.339844 372.089844,135.339844 C377.441433,135.339844 382.929659,134.187512 388.554688,131.882812 L388.554688,140.496094 C384.257791,142.722667 378.847689,143.835938 372.324219,143.835938 Z M424.53125,135.808594 C426.250009,135.808594 427.910148,135.681642 429.511719,135.427734 C431.113289,135.173827 432.382808,134.910158 433.320312,134.636719 L433.320312,142.078125 C432.26562,142.58594 430.712901,143.005858 428.662109,143.337891 C426.611318,143.669924 424.765633,143.835938 423.125,143.835938 C410.703063,143.835938 404.492188,137.293034 404.492188,124.207031 L404.492188,86.0039062 L395.292969,86.0039062 L395.292969,81.3164062 L404.492188,77.2734375 L408.59375,63.5625 L414.21875,63.5625 L414.21875,78.4453125 L432.851562,78.4453125 L432.851562,86.0039062 L414.21875,86.0039062 L414.21875,123.796875 C414.21875,127.664082 415.13671,130.632802 416.972656,132.703125 C418.808603,134.773448 421.328109,135.808594 424.53125,135.808594 Z M501.582031,110.496094 C501.582031,120.964896 498.945339,129.138642 493.671875,135.017578 C488.398411,140.896514 481.113328,143.835938 471.816406,143.835938 C466.07419,143.835938 460.976585,142.488295 456.523438,139.792969 C452.07029,137.097643 448.632825,133.230494 446.210938,128.191406 C443.78905,123.152319 442.578125,117.25394 442.578125,110.496094 C442.578125,100.027291 445.195286,91.8730761 450.429688,86.0332031 C455.664089,80.1933302 462.929641,77.2734375 472.226562,77.2734375 C481.210982,77.2734375 488.349583,80.2616889 493.642578,86.2382812 C498.935573,92.2148736 501.582031,100.30073 501.582031,110.496094 Z M452.65625,110.496094 C452.65625,118.69926 454.296859,124.949197 457.578125,129.246094 C460.859391,133.54299 465.683562,135.691406 472.050781,135.691406 C478.418001,135.691406 483.251937,133.552756 486.552734,129.275391 C489.853532,124.998025 491.503906,118.738322 491.503906,110.496094 C491.503906,102.33199 489.853532,96.1308806 486.552734,91.8925781 C483.251937,87.6542757 478.378938,85.5351562 471.933594,85.5351562 C465.566374,85.5351562 460.761735,87.6249791 457.519531,91.8046875 C454.277328,95.9843959 452.65625,102.214802 452.65625,110.496094 Z M547.929688,77.2734375 C550.781264,77.2734375 553.339832,77.5078102 555.605469,77.9765625 L554.257812,87 C551.601549,86.4140596 549.257823,86.1210938 547.226562,86.1210938 C542.031224,86.1210938 537.587909,88.2304477 533.896484,92.4492188 C530.20506,96.6679898 528.359375,101.921844 528.359375,108.210938 L528.359375,142.664062 L518.632812,142.664062 L518.632812,78.4453125 L526.660156,78.4453125 L527.773438,90.3398438 L528.242188,90.3398438 C530.625012,86.1601354 533.496077,82.9375113 536.855469,80.671875 C540.214861,78.4062387 543.90623,77.2734375 547.929688,77.2734375 Z" id="Vector" fill="#1DE9B6"></path>
        </g>
    </g>
</svg>