<?xml version="1.0" encoding="UTF-8"?>
<svg width="128px" height="128px" viewBox="0 0 512 512" version="1.1" xmlns="http://www.w3.org/2000/svg" xmlns:xlink="http://www.w3.org/1999/xlink">
    <!-- Generator: Sketch 52.6 (67491) - http://www.bohemiancoding.com/sketch -->
    <title>play/ic_launcher_APP</title>
    <desc>Created with Sketch.</desc>
    <g id="play/ic_launcher_APP" stroke="none" stroke-width="1" fill="none" fill-rule="evenodd">
        <g id="udf-circle" transform="translate(35.000000, 35.000000)">
            <path d="M216.257946,376.929302 L187.914325,404.343624 C186.359029,405.89833 185.5,407.616388 185.5,409.5 C185.5,411.383612 186.359029,413.10167 187.87868,414.62132 L216.130527,441.947414 C96.3242428,439.357476 0,341.427604 0,221 C0,100.191597 96.9343716,2.02342922 217.267732,0.0308797084 L217.267716,0.0308799813 L248.942008,31.6240389 C249.373856,32.069981 249.515152,32.3614027 249.515152,32.5 C249.515152,32.6385973 249.373856,32.930019 248.906905,33.4115625 L219.36625,62.8759611 L217.242211,64.9945593 L217.29076,65.0432322 C132.847874,67.0135472 65,136.083414 65,221 C65,305.570095 132.295314,374.422527 216.257946,376.929302 Z M224.633545,376.958516 C309.111593,375.027709 377,305.941948 377,221 C377,136.403824 309.663172,67.5350062 225.664367,65.0683981 L253.179204,37.6240389 C254.68675,36.069981 255.515152,34.3614027 255.515152,32.5 C255.515152,30.6385973 254.68675,28.930019 253.214307,27.4115625 L225.783777,0.0507500075 C345.629821,2.59582907 442,100.543684 442,221 C442,341.818173 345.04995,439.992448 224.703074,441.969602 L224.742052,441.929299 L192.085675,410.343624 C191.640971,409.89833 191.5,409.616388 191.5,409.5 C191.5,409.383612 191.640971,409.10167 192.12132,408.62132 L222.585675,379.156376 L224.742052,377.070701 L224.633545,376.958516 Z" id="Combined-Shape" fill="#FFFFFF"></path>
            <g id="circle-arrow" transform="translate(237.000000, 32.500000) rotate(180.000000) translate(-237.000000, -32.500000) translate(221.000000, 0.000000)"></g>
        </g>
    </g>
</svg>